<svg version="1.0" xmlns="http://www.w3.org/2000/svg" width="682.667" height="682.667" viewBox="0 0 512 512"><path d="M42.6 126.8c-23.1 26.8-42 49.4-42 50.3C.5 178.6 254.7 469 256 469c.9 0 255.5-290 255.8-291.4.1-.7-20.5-23.4-46-50.4L419.6 78H84.5l-41.9 48.8zm83.9-15.3c-25.3 15.1-40.4 30.3-50.9 51.2-5.6 11.2-8 21-8 33.3-.1 5.8.2 12 .6 13.8.7 2.9-1.4 1.1-15.5-13.4-8.9-9.1-16.6-17.3-17-18.1-.6-.9.1-2.5 2-4.7 1.5-1.9 11.3-13.9 21.7-26.8 10.4-12.8 21.7-26.5 25-30.5l6.1-7.1 20-.1h20l-4 2.4zm136 .6c31.6 4 58.6 19.7 71.6 41.7 2 3.4 5.1 10.6 7 16.2l3.4 10H430v-25.3l.1-25.2 3.7 4.1c30.3 33.2 41.2 45.5 41.2 46.2 0 .5-9.1 10.3-20.2 21.8-11.2 11.5-24.1 25.1-28.8 30.2l-8.5 9.3-7.5-8.8c-12.4-14.4-30-26.3-46.3-31.3-14.1-4.3-21.4-4.7-95.7-6-46.8-.8-47.7-.8-59-3.5-31.8-7.5-51.2-17.7-55.6-29-4.5-11.9 6.9-26.5 29.6-38 25.3-12.7 48.3-16.3 79.5-12.4zm114.8.2c-.4.8-4.4 5.6-8.7 10.9l-7.9 9.5-7.6-7.7c-4.2-4.2-9.4-9.1-11.6-10.8l-4-3.1 20.3-.1c16.7 0 20.2.2 19.5 1.3zM152.5 269.5c17.6 1.4 37.2 2.9 43.5 3.5 21 1.8 67.2 4.9 90 6 12.4.6 26 1.5 30.3 2.1 18.8 2.4 34.8 10.2 38.4 18.6 1.2 3 1.2 3.8-.3 6.9-5 10.6-25.4 18.7-54.9 22-22.9 2.6-41.2.7-49.4-5.2-11.6-8.4-20.9-12.7-35.6-16.3-19.6-4.8-40-5.2-55.9-1.1-4.4 1.1-8.2 2-8.5 2-.4 0-4.5-4.4-9.1-9.7-4.7-5.4-12.1-13.6-16.5-18.3-4.4-4.7-8.9-9.5-9.9-10.8l-1.9-2.2h3.9c2.1 0 18.3 1.1 35.9 2.5zm69.7 98.4c16.6 3.5 33 4.7 49.1 3.3 15.9-1.4 25.9-3.2 35.9-6.7 3.8-1.3 6.5-1.8 6.1-1.1-2.1 3.4-55.8 63.9-57.2 64.3-.6.2-53.3-63.1-53.9-64.8-.2-.5 2.2 0 5.2 1.1 3.1 1 9.8 2.8 14.8 3.9z"/></svg>